<svg width="40" height="40" fill="none" xmlns="http://www.w3.org/2000/svg"><path d="M28.9 9.1a2 2 0 100 4 2 2 0 000-4zm7.7 4c0-1.3-.3-2.7-.8-4-.4-1.1-1-2.1-2-3A7.8 7.8 0 0031 4.2c-1.3-.5-2.6-.7-4-.8H13c-1.4 0-2.7.3-4 .8a8 8 0 00-3 2C5.3 7 4.6 8 4.2 9c-.5 1.3-.7 2.6-.8 4V27c0 1.4.3 2.7.8 4 .4 1.1 1 2.1 2 3A8 8 0 009 35.8c1.3.5 2.6.7 4 .8H27c1.4 0 2.7-.3 4-.8 1.1-.4 2.1-1 3-2a8 8 0 001.9-2.9c.5-1.3.7-2.7.8-4V20v-6.9zm-3 13.6c0 1-.2 2-.6 3-.3.8-.7 1.4-1.3 2-.5.5-1.1 1-1.9 1.2-1 .4-2 .6-3 .6l-6.7.1-6.7-.1c-1.1 0-2.2-.1-3.2-.5-.7-.3-1.3-.7-1.9-1.2a5 5 0 01-1.2-2c-.4-1-.6-2-.7-3.1V20v-6.7c0-1 .2-2.1.6-3.1a5 5 0 011.3-1.9c.5-.5 1.2-1 1.9-1.3 1-.4 2-.6 3.1-.6h13.4c1 0 2 .2 3 .6.8.3 1.5.7 2 1.3.6.5 1 1.2 1.3 1.9.4 1 .6 2 .6 3.1a108.4 108.4 0 010 13.4zM20 11.5a8.6 8.6 0 100 17 8.6 8.6 0 000-17zm0 14a5.5 5.5 0 110-11 5.5 5.5 0 010 11z" fill="#fff"/></svg>