<svg width="12" height="18" viewBox="0 0 12 18" fill="none" xmlns="http://www.w3.org/2000/svg">
<path d="M10.72 8.05322L3.17333 0.519886C3.04938 0.394915 2.90191 0.295723 2.73943 0.228031C2.57695 0.16034 2.40268 0.125488 2.22666 0.125488C2.05065 0.125488 1.87637 0.16034 1.71389 0.228031C1.55141 0.295723 1.40395 0.394915 1.28 0.519886C1.03166 0.769703 0.892273 1.10764 0.892273 1.45989C0.892273 1.81213 1.03166 2.15007 1.28 2.39989L7.88 9.06655L1.28 15.6666C1.03166 15.9164 0.892273 16.2543 0.892273 16.6066C0.892273 16.9588 1.03166 17.2967 1.28 17.5466C1.40348 17.6725 1.55074 17.7728 1.71324 17.8414C1.87574 17.9101 2.05025 17.9458 2.22666 17.9466C2.40307 17.9458 2.57758 17.9101 2.74008 17.8414C2.90258 17.7728 3.04984 17.6725 3.17333 17.5466L10.72 10.0132C10.8553 9.88836 10.9633 9.73683 11.0372 9.56816C11.1111 9.3995 11.1492 9.21735 11.1492 9.03322C11.1492 8.84908 11.1111 8.66694 11.0372 8.49828C10.9633 8.32961 10.8553 8.17808 10.72 8.05322Z" fill="white"/>
</svg>
